<svg width="16" height="17" viewBox="0 0 16 17" fill="none" xmlns="http://www.w3.org/2000/svg">
<path d="M8.60858 11.8333H13.3913M8.60858 11.8333L7.33325 14.5M8.60858 11.8333L10.5188 7.83933C10.6727 7.51753 10.7497 7.3566 10.855 7.30573C10.9465 7.26153 11.0533 7.26153 11.1449 7.30573C11.2502 7.3566 11.3271 7.51753 11.4811 7.83933L13.3913 11.8333M13.3913 11.8333L14.6666 14.5M1.33325 3.83333H5.33325M5.33325 3.83333H7.66658M5.33325 3.83333V2.5M7.66658 3.83333H9.33325M7.66658 3.83333C7.33585 5.80486 6.56831 7.5908 5.44362 9.0896M6.66658 9.83333C6.25823 9.64987 5.84169 9.39473 5.44362 9.0896M5.44362 9.0896C4.54193 8.39853 3.73509 7.45107 3.33325 6.5M5.44362 9.0896C4.37383 10.5153 2.98087 11.6812 1.33325 12.5" stroke="#34363A" stroke-width="1.5" stroke-linecap="round" stroke-linejoin="round"/>
</svg>
