<svg width="32" height="32" viewBox="0 0 32 32" fill="none" xmlns="http://www.w3.org/2000/svg">
<path d="M11.3334 19.5556C11.3334 21.2737 12.7263 22.6667 14.4445 22.6667H17.3334C19.1743 22.6667 20.6667 21.1743 20.6667 19.3333C20.6667 17.4924 19.1743 16 17.3334 16H14.6667C12.8258 16 11.3334 14.5076 11.3334 12.6667C11.3334 10.8257 12.8258 9.33332 14.6667 9.33332H17.5557C19.2738 9.33332 20.6667 10.7262 20.6667 12.4444M16.0001 7.33332V9.33332M16.0001 22.6667V24.6667M29.3334 16C29.3334 23.3637 23.3638 29.3333 16.0001 29.3333C8.63628 29.3333 2.66675 23.3637 2.66675 16C2.66675 8.63619 8.63628 2.66666 16.0001 2.66666C23.3638 2.66666 29.3334 8.63619 29.3334 16Z" stroke="#6C66FB" stroke-width="3" stroke-linecap="round" stroke-linejoin="round"/>
</svg>
